<?xml version="1.0" encoding="UTF-8" standalone="no"?>
<!-- Created with Inkscape (http://www.inkscape.org/) -->

<svg
   xmlns:dc="http://purl.org/dc/elements/1.1/"
   xmlns:cc="http://creativecommons.org/ns#"
   xmlns:rdf="http://www.w3.org/1999/02/22-rdf-syntax-ns#"
   xmlns:svg="http://www.w3.org/2000/svg"
   xmlns="http://www.w3.org/2000/svg"
   xmlns:xlink="http://www.w3.org/1999/xlink"
   xmlns:sodipodi="http://sodipodi.sourceforge.net/DTD/sodipodi-0.dtd"
   xmlns:inkscape="http://www.inkscape.org/namespaces/inkscape"
   width="170.35345mm"
   height="38.429611mm"
   viewBox="0 0 603.6146 136.16791"
   id="svg8039"
   version="1.1"
   inkscape:version="0.91 r13725"
   sodipodi:docname="jade-logo.svg">
  <defs
     id="defs8041">
    <linearGradient
       inkscape:collect="always"
       xlink:href="#linearGradient4862"
       id="linearGradient4868-5"
       x1="1281.7666"
       y1="570.36218"
       x2="1329.2334"
       y2="616.36218"
       gradientUnits="userSpaceOnUse"
       gradientTransform="translate(-1128.4787,-117.78656)" />
    <linearGradient
       inkscape:collect="always"
       id="linearGradient4862">
      <stop
         style="stop-color:#5ec7b2;stop-opacity:1;"
         offset="0"
         id="stop4864" />
      <stop
         style="stop-color:#5ec7b2;stop-opacity:0;"
         offset="1"
         id="stop4866" />
    </linearGradient>
  </defs>
  <sodipodi:namedview
     id="base"
     pagecolor="#ffffff"
     bordercolor="#666666"
     borderopacity="1.0"
     inkscape:pageopacity="0.0"
     inkscape:pageshadow="2"
     inkscape:zoom="0.35"
     inkscape:cx="-183.19272"
     inkscape:cy="-17.630325"
     inkscape:document-units="px"
     inkscape:current-layer="layer1"
     showgrid="false"
     inkscape:window-width="1280"
     inkscape:window-height="798"
     inkscape:window-x="0"
     inkscape:window-y="0"
     inkscape:window-maximized="1"
     fit-margin-top="0"
     fit-margin-left="0"
     fit-margin-right="0"
     fit-margin-bottom="0" />
  <metadata
     id="metadata8044">
    <rdf:RDF>
      <cc:Work
         rdf:about="">
        <dc:format>image/svg+xml</dc:format>
        <dc:type
           rdf:resource="http://purl.org/dc/dcmitype/StillImage" />
        <dc:title></dc:title>
      </cc:Work>
    </rdf:RDF>
  </metadata>
  <g
     inkscape:label="Layer 1"
     inkscape:groupmode="layer"
     id="layer1"
     transform="translate(-75.335576,-378.56396)">
    <path
       style="opacity:1;fill:#ffffff;fill-opacity:1"
       d="m 142.49974,378.59431 c -36.9447,0.46849 -70.368196,35.1351 -66.918596,72.45719 2.0949,34.61165 33.994796,63.98278 68.613896,63.65803 34.0028,0.90372 67.5547,-25.70758 70.9571,-60.22264 4.3124,-33.84879 -20.8881,-68.46446 -54.6289,-74.28711 -5.9153,-1.25204 -11.981,-1.77245 -18.0235,-1.60547 z"
       id="ellipse4870-7"
       inkscape:connector-curvature="0"
       inkscape:export-filename="/home/chrx/Pictures/Jade/jade-logo-3.png"
       inkscape:export-xdpi="90"
       inkscape:export-ydpi="90" />
    <path
       style="opacity:1;fill:#3de0bf;fill-opacity:1"
       d="m 207.52126,446.57562 a 62,60 0 0 1 -62,60 62,60 0 0 1 -62.000005,-60 62,60 0 0 1 62.000005,-60 62,60 0 0 1 62,60 z"
       id="path4480-3"
       inkscape:connector-curvature="0" />
    <g
       transform="translate(-1281.2321,155.58349)"
       style="font-style:normal;font-variant:normal;font-weight:normal;font-stretch:normal;font-size:67.5px;line-height:125%;font-family:Roboto;-inkscape-font-specification:'Roboto, Normal';text-align:start;letter-spacing:0px;word-spacing:0px;writing-mode:lr-tb;text-anchor:start;fill:#ffffff;fill-opacity:1;stroke:none;stroke-width:1px;stroke-linecap:butt;stroke-linejoin:miter;stroke-opacity:1"
       id="flowRoot4458-5-3">
      <path
         d="m 1547.4143,222.98047 6.0974,0 0,34.67285 q 0,6.5918 -3.988,10.31616 -3.9881,3.69141 -10.5469,3.69141 -7.0203,0 -11.0413,-3.46069 -3.988,-3.4607 -3.988,-10.448 l 6.0974,0 q 0,4.61426 2.2742,6.82251 2.2742,2.17529 6.6577,2.17529 3.7573,0 6.0974,-2.43896 2.3401,-2.43897 2.3401,-6.65772 l 0,-34.67285 z"
         style="font-style:normal;font-variant:normal;font-weight:normal;font-stretch:normal;font-size:67.5px;line-height:125%;font-family:Roboto;-inkscape-font-specification:'Roboto, Normal';text-align:start;writing-mode:lr-tb;text-anchor:start;fill:#ffffff"
         id="path4169"
         inkscape:connector-curvature="0" />
      <path
         d="m 1590.9531,258.18066 -20.2038,0 -4.7132,12.78809 -6.2292,0 18.5229,-47.98828 5.2735,0 18.2263,47.98828 -6.2293,0 -4.6472,-12.78809 z m -18.3911,-4.91088 16.6113,0 -8.2397,-22.7417 -8.3716,22.7417 z"
         style="font-style:normal;font-variant:normal;font-weight:normal;font-stretch:normal;font-size:67.5px;line-height:125%;font-family:Roboto;-inkscape-font-specification:'Roboto, Normal';text-align:start;writing-mode:lr-tb;text-anchor:start;fill:#ffffff"
         id="path4171"
         inkscape:connector-curvature="0" />
      <path
         d="m 1609.2124,270.96875 0,-47.98828 14.6008,0 q 9.5581,0 15.1612,5.7019 5.603,5.70191 5.603,15.06226 l 0,6.49292 q 0,9.42627 -5.669,15.09521 -5.6689,5.63599 -15.6884,5.63599 l -14.0076,0 z m 6.0974,-43.04443 0,38.13354 7.9102,0 q 7.6465,0 11.4367,-4.28467 3.7903,-4.31762 3.7903,-11.53564 l 0,-6.55884 q 0,-7.34985 -3.7243,-11.53564 -3.7244,-4.21875 -10.9095,-4.21875 l -8.5034,0 z"
         style="font-style:normal;font-variant:normal;font-weight:normal;font-stretch:normal;font-size:67.5px;line-height:125%;font-family:Roboto;-inkscape-font-specification:'Roboto, Normal';text-align:start;writing-mode:lr-tb;text-anchor:start;fill:#ffffff"
         id="path4173"
         inkscape:connector-curvature="0" />
      <path
         d="m 1683.0735,248.62256 -22.1485,0 0,17.4353 25.5103,0 0,4.91089 -31.6077,0 0,-47.98828 31.2781,0 0,4.94385 -25.1807,0 0,15.75439 22.1485,0 0,4.94385 z"
         style="font-style:normal;font-variant:normal;font-weight:normal;font-stretch:normal;font-size:67.5px;line-height:125%;font-family:Roboto;-inkscape-font-specification:'Roboto, Normal';text-align:start;writing-mode:lr-tb;text-anchor:start;fill:#ffffff"
         id="path4175"
         inkscape:connector-curvature="0" />
    </g>
    <g
       transform="translate(-1277.1735,177.8695)"
       style="font-style:normal;font-variant:normal;font-weight:bold;font-stretch:normal;font-size:101.25px;line-height:125%;font-family:sans-serif;-inkscape-font-specification:'sans-serif, Bold';text-align:start;letter-spacing:0px;word-spacing:0px;writing-mode:lr-tb;text-anchor:start;fill:#ffffff;fill-opacity:1;stroke:none;stroke-width:1px;stroke-linecap:butt;stroke-linejoin:miter;stroke-opacity:1"
       id="flowRoot4470-3-2">
      <path
         d="m 1540.6427,276.00362 0,45.03845 6.8225,0 q 11.6675,0 17.7979,-5.7843 6.1798,-5.78431 6.1798,-16.80909 0,-10.97534 -6.1304,-16.7102 -6.1304,-5.73486 -17.8473,-5.73486 l -6.8225,0 z m -19.0338,-14.3866 20.072,0 q 16.8091,0 25.0159,2.42248 8.2562,2.37305 14.1394,8.10792 5.191,4.99328 7.7124,11.51916 2.5213,6.52588 2.5213,14.7821 0,8.35511 -2.5213,14.93042 -2.5214,6.52588 -7.7124,11.51917 -5.9326,5.73486 -14.2383,8.15735 -8.3057,2.37305 -24.917,2.37305 l -20.072,0 0,-73.81165 z"
         style="font-style:normal;font-variant:normal;font-weight:bold;font-stretch:normal;font-size:101.25px;line-height:125%;font-family:sans-serif;-inkscape-font-specification:'sans-serif, Bold';text-align:start;writing-mode:lr-tb;text-anchor:start;fill:#ffffff"
         id="path4154"
         inkscape:connector-curvature="0" />
      <path
         d="m 1605.6543,261.61702 19.0338,0 0,73.81165 -19.0338,0 0,-73.81165 z"
         style="font-style:normal;font-variant:normal;font-weight:bold;font-stretch:normal;font-size:101.25px;line-height:125%;font-family:sans-serif;-inkscape-font-specification:'sans-serif, Bold';text-align:start;writing-mode:lr-tb;text-anchor:start;fill:#ffffff"
         id="path4156"
         inkscape:connector-curvature="0" />
      <path
         d="m 1709.7717,329.94099 q -7.1191,3.4607 -14.7821,5.19104 -7.6629,1.73035 -15.8203,1.73035 -18.4405,0 -29.2181,-10.2832 -10.7776,-10.33264 -10.7776,-27.98218 0,-17.84729 10.9753,-28.08105 10.9754,-10.23377 30.0586,-10.23377 7.3664,0 14.09,1.38428 6.7731,1.38428 12.7551,4.10339 l 0,15.27649 q -6.1798,-3.51013 -12.3102,-5.24048 -6.0809,-1.73034 -12.2113,-1.73034 -11.3708,0 -17.5506,6.37756 -6.1304,6.32812 -6.1304,18.14392 0,11.71692 5.9326,18.09448 5.9326,6.37757 16.8585,6.37757 2.9663,0 5.4877,-0.34607 2.5708,-0.39551 4.5978,-1.18653 l 0,-14.33716 -11.6181,0 0,-12.75512 29.6631,0 0,35.49682 z"
         style="font-style:normal;font-variant:normal;font-weight:bold;font-stretch:normal;font-size:101.25px;line-height:125%;font-family:sans-serif;-inkscape-font-specification:'sans-serif, Bold';text-align:start;writing-mode:lr-tb;text-anchor:start;fill:#ffffff"
         id="path4158"
         inkscape:connector-curvature="0" />
      <path
         d="m 1726.4819,261.61702 19.0338,0 0,73.81165 -19.0338,0 0,-73.81165 z"
         style="font-style:normal;font-variant:normal;font-weight:bold;font-stretch:normal;font-size:101.25px;line-height:125%;font-family:sans-serif;-inkscape-font-specification:'sans-serif, Bold';text-align:start;writing-mode:lr-tb;text-anchor:start;fill:#ffffff"
         id="path4160"
         inkscape:connector-curvature="0" />
      <path
         d="m 1755.4529,261.61702 68.0273,0 0,14.3866 -24.472,0 0,59.42505 -19.0338,0 0,-59.42505 -24.5215,0 0,-14.3866 z"
         style="font-style:normal;font-variant:normal;font-weight:bold;font-stretch:normal;font-size:101.25px;line-height:125%;font-family:sans-serif;-inkscape-font-specification:'sans-serif, Bold';text-align:start;writing-mode:lr-tb;text-anchor:start;fill:#ffffff"
         id="path4162"
         inkscape:connector-curvature="0" />
      <path
         d="m 1870.1501,321.9814 -29.7619,0 -4.6967,13.44727 -19.1327,0 27.3395,-73.81165 22.6923,0 27.3395,73.81165 -19.1327,0 -4.6473,-13.44727 z m -25.0158,-13.69446 20.2203,0 -10.0854,-29.36645 -10.1349,29.36645 z"
         style="font-style:normal;font-variant:normal;font-weight:bold;font-stretch:normal;font-size:101.25px;line-height:125%;font-family:sans-serif;-inkscape-font-specification:'sans-serif, Bold';text-align:start;writing-mode:lr-tb;text-anchor:start;fill:#ffffff"
         id="path4164"
         inkscape:connector-curvature="0" />
      <path
         d="m 1903.6694,261.61702 19.0338,0 0,59.42505 33.4205,0 0,14.3866 -52.4543,0 0,-73.81165 z"
         style="font-style:normal;font-variant:normal;font-weight:bold;font-stretch:normal;font-size:101.25px;line-height:125%;font-family:sans-serif;-inkscape-font-specification:'sans-serif, Bold';text-align:start;writing-mode:lr-tb;text-anchor:start;fill:#ffffff"
         id="path4166"
         inkscape:connector-curvature="0" />
    </g>
    <path
       inkscape:connector-curvature="0"
       style="opacity:1;fill:url(#linearGradient4868-5);fill-opacity:1"
       d="m 162.80154,416.84323 0,39.01367 c 0,7.10938 -1.4974,12.20052 -4.4922,15.27344 -2.9687,3.04687 -7.8776,4.57031 -14.7266,4.57031 -2.4739,0 -5.0651,-0.33854 -7.7734,-1.01562 -1.4988,-0.37836 -3.0064,-0.86953 -4.5215,-1.45118 l 29.1446,31.07421 a 62,60 0 0 0 45.3222,-41.66991 l -42.9531,-45.79492 z"
       id="path4480-5-6"
       inkscape:export-filename="/home/chrx/Pictures/Jade/jade-logo-3.png"
       inkscape:export-xdpi="90"
       inkscape:export-ydpi="90" />
    <g
       style="font-style:normal;font-variant:normal;font-weight:bold;font-stretch:normal;font-size:80px;line-height:125%;font-family:monospace;-inkscape-font-specification:'monospace, Bold';text-align:start;letter-spacing:0px;word-spacing:0px;writing-mode:lr-tb;text-anchor:start;fill:#ffffff;fill-opacity:1;stroke:none;stroke-width:1px;stroke-linecap:butt;stroke-linejoin:miter;stroke-opacity:1"
       id="text4482-3">
      <path
         d="m 127.96265,472.27878 0,-13.35938 q 3.35938,3.4375 7.14844,5.23438 3.82813,1.79687 7.69531,1.79687 4.53125,0 6.64063,-2.26562 2.10937,-2.26563 2.10937,-7.22656 l 0,-29.45313 -14.10156,0 0,-10.15625 25.625,0 0,39.60938 q 0,10.66406 -4.49219,15.27343 -4.45312,4.57032 -14.72656,4.57032 -3.71094,0 -7.77344,-1.01563 -4.02343,-1.01562 -8.125,-3.00781 z"
         style="font-style:normal;font-variant:normal;font-weight:bold;font-stretch:normal;font-size:80px;line-height:125%;font-family:monospace;-inkscape-font-specification:'monospace, Bold';text-align:start;writing-mode:lr-tb;text-anchor:start;fill:#ffffff"
         id="path4151"
         inkscape:connector-curvature="0" />
    </g>
  </g>
</svg>
