<?xml version="1.0" encoding="UTF-8" standalone="no"?>
<!-- Generator: Adobe Illustrator 19.0.0, SVG Export Plug-In . SVG Version: 6.00 Build 0)  -->

<svg
   xmlns:dc="http://purl.org/dc/elements/1.1/"
   xmlns:cc="http://creativecommons.org/ns#"
   xmlns:rdf="http://www.w3.org/1999/02/22-rdf-syntax-ns#"
   xmlns:svg="http://www.w3.org/2000/svg"
   xmlns="http://www.w3.org/2000/svg"
   xmlns:sodipodi="http://sodipodi.sourceforge.net/DTD/sodipodi-0.dtd"
   xmlns:inkscape="http://www.inkscape.org/namespaces/inkscape"
   version="1.1"
   id="Layer_1"
   x="0px"
   y="0px"
   viewBox="0 0 453.35 453.35"
   style="enable-background:new 0 0 453.35 453.35;"
   xml:space="preserve"
   inkscape:version="0.91 r13725"
   sodipodi:docname="webdesign.svg"><metadata
     id="metadata5780"><rdf:RDF><cc:Work
         rdf:about=""><dc:format>image/svg+xml</dc:format><dc:type
           rdf:resource="http://purl.org/dc/dcmitype/StillImage" /><dc:title></dc:title></cc:Work></rdf:RDF></metadata><defs
     id="defs5778" /><sodipodi:namedview
     pagecolor="#ffffff"
     bordercolor="#666666"
     borderopacity="1"
     objecttolerance="10"
     gridtolerance="10"
     guidetolerance="10"
     inkscape:pageopacity="0"
     inkscape:pageshadow="2"
     inkscape:window-width="1280"
     inkscape:window-height="798"
     id="namedview5776"
     showgrid="false"
     inkscape:zoom="1.0411382"
     inkscape:cx="226.675"
     inkscape:cy="265.0945"
     inkscape:window-x="0"
     inkscape:window-y="0"
     inkscape:window-maximized="1"
     inkscape:current-layer="Layer_1" /><path
     style="opacity:1;fill:#3de0bf;fill-opacity:1"
     d="m 55.708267,161.36186 342.893963,0 c 4.78899,0 8.64439,3.8554 8.64439,8.64439 l 0,192.09745 c 0,4.78899 -3.8554,8.64439 -8.64439,8.64439 l -342.893963,0 c -4.788992,0 -8.64439,-3.8554 -8.64439,-8.64439 l 0,-192.09745 c 0,-4.78899 3.855398,-8.64439 8.64439,-8.64439 z"
     id="rect6360" /><path
     style="opacity:1;fill:#e0863d;fill-opacity:1"
     d="m 75.691946,182.49258 301.005624,0 c 6.28198,0 11.33931,3.50392 11.33931,7.85632 l 0,12.14149 c 0,4.35241 -5.05733,7.85633 -11.33931,7.85633 l -301.005624,0 c -6.281972,0 -11.3393,-3.50392 -11.3393,-7.85633 l 0,-12.14149 c 0,-4.3524 5.057328,-7.85632 11.3393,-7.85632 z"
     id="rect6396"
     inkscape:connector-curvature="0" /><path
     style="opacity:1;fill:#3de0bf;fill-opacity:1"
     d="m 259.33157,39.379979 104.69311,0 c 4.78899,0 8.64439,4.162078 8.64439,9.332012 l 0,163.828559 c 0,5.16993 -3.8554,9.33201 -8.64439,9.33201 l -104.69311,0 c -4.78899,0 -8.64439,-4.16208 -8.64439,-9.33201 l 0,-163.828559 c 0,-5.169934 3.8554,-9.332012 8.64439,-9.332012 z"
     id="rect6393"
     inkscape:connector-curvature="0" /><rect
     style="opacity:1;fill:#e03d4d;fill-opacity:1"
     id="rect6347"
     width="221.87257"
     height="104.69314"
     x="166.16431"
     y="247.80569"
     ry="10.565361" /><rect
     style="opacity:1;fill:#e03d4d;fill-opacity:1"
     id="rect6345"
     width="88.364822"
     height="126.78431"
     x="64.352646"
     y="227.6355"
     ry="8.6443863" /><rect
     style="opacity:1;fill:#e03d4d;fill-opacity:1"
     id="rect6429"
     width="105.6536"
     height="83.562393"
     x="258.85132"
     y="111.41653"
     ry="8.6443901" /><rect
     style="opacity:1;fill:#e0863d;fill-opacity:1"
     id="rect6431"
     width="103.73263"
     height="35.538029"
     x="259.8118"
     y="56.668751"
     ry="8.6443901" /><g
     id="g5698"><path
       style="fill:#4d4d4d;fill-opacity:1"
       d="M426.2,161.825v227.74H27.16v-227.74c0-10.1,8.18-18.28,18.28-18.28h200.83v23H50.16v200.02h36.11   h99.37h178.68h38.88v-200.02h-24.93v-23h29.65C418.01,143.545,426.2,151.725,426.2,161.825z"
       id="path5700" /><path
       style="fill:#4d4d4d;fill-opacity:1"
       d="M426.2,389.565h27.15c0,20.71-16.79,37.5-37.5,37.5H37.5c-10.36,0-19.73-4.2-26.52-10.98   C4.2,409.295,0,399.925,0,389.565h27.16H426.2z"
       id="path5702" /><g
       id="g5716"><path
         style="opacity:0.23;fill:#F2F2F2;enable-background:new    ;"
         d="M426.2,161.825v227.74H238.38l11.97-23l104.09-200.02    l11.97-23h41.51C418.02,143.545,426.2,151.725,426.2,161.825z"
         id="path5718" /><path
         style="opacity:0.23;fill:#F2F2F2;enable-background:new    ;"
         d="M126.68,143.545l-99.52,192.72v-174.44    c0-10.1,8.19-18.28,18.28-18.28L126.68,143.545L126.68,143.545z"
         id="path5720" /></g><g
       id="g5722"><path
         style="opacity:0.23;fill:#F2F2F2;enable-background:new    ;"
         d="M453.35,389.565c0,11.27-4.98,21.39-12.85,28.26H318.92    l14.7-28.26H453.35z"
         id="path5724" /></g><path
       style="fill:#4D4D4D;"
       d="M378.27,213.395c0,12.64-10.25,22.89-22.89,22.89h-86.22c-12.64,0-22.89-10.25-22.89-22.89H378.27z"
       id="path5728" /><path
       style="fill:#4D4D4D;"
       d="M378.27,49.175h-132c0-12.64,10.25-22.89,22.89-22.89h86.22   C368.02,26.285,378.27,36.535,378.27,49.175z"
       id="path5730" /><rect
       x="246.27"
       y="49.175"
       style="fill:#4D4D4D;"
       width="5.41"
       height="164.22"
       id="rect5736" /><rect
       x="372.86"
       y="49.175"
       style="fill:#4D4D4D;"
       width="5.41"
       height="164.22"
       id="rect5738" /><g
       id="g5740"><path
         style="opacity:0.23;fill:#F2F2F2;enable-background:new    ;"
         d="M309.61,26.285l-11.82,22.89l-46.11,89.3l-5.41,10.47    v-99.77c0-12.64,10.25-22.89,22.89-22.89L309.61,26.285L309.61,26.285z"
         id="path5744" /></g></g><g
     id="g5746" /><g
     id="g5748" /><g
     id="g5750" /><g
     id="g5752" /><g
     id="g5754" /><g
     id="g5756" /><g
     id="g5758" /><g
     id="g5760" /><g
     id="g5762" /><g
     id="g5764" /><g
     id="g5766" /><g
     id="g5768" /><g
     id="g5770" /><g
     id="g5772" /><g
     id="g5774" /></svg>